<svg width="48" height="26" viewBox="0 0 48 26" fill="none" xmlns="http://www.w3.org/2000/svg">
<path d="M6.368 17.288V17.096H15.2V17.288H6.368ZM14.576 0.519999L22.992 24.808H25.296V25H13.632V24.808H16.192L10.272 6.504L3.824 24.808H7.584V25H0.528V24.808H3.584L12.16 0.519999H14.576ZM34.7725 25.32C33.3858 25.32 32.1325 25.016 31.0125 24.408C29.8925 23.7893 29.0018 22.9093 28.3405 21.768C27.6898 20.616 27.3645 19.24 27.3645 17.64C27.3645 16.04 27.6792 14.6693 28.3085 13.528C28.9485 12.376 29.8178 11.496 30.9165 10.888C32.0152 10.2693 33.2632 9.96 34.6605 9.96C36.2392 9.96 37.5085 10.2747 38.4685 10.904C39.4285 11.5333 40.1218 12.36 40.5485 13.384C40.9858 14.3973 41.2045 15.4853 41.2045 16.648H29.5085V16.456H37.8125C37.8232 15.848 37.7912 15.1867 37.7165 14.472C37.6525 13.7467 37.5138 13.0587 37.3005 12.408C37.0872 11.7467 36.7672 11.208 36.3405 10.792C35.9245 10.3653 35.3645 10.152 34.6605 10.152C33.8712 10.152 33.2205 10.3707 32.7085 10.808C32.1965 11.2347 31.7912 11.8107 31.4925 12.536C31.2045 13.2507 31.0018 14.0507 30.8845 14.936C30.7672 15.8213 30.7085 16.7227 30.7085 17.64C30.7085 18.5467 30.7672 19.4427 30.8845 20.328C31.0125 21.2133 31.2312 22.0133 31.5405 22.728C31.8498 23.4427 32.2818 24.0187 32.8365 24.456C33.4018 24.8827 34.1165 25.096 34.9805 25.096C36.5912 25.096 37.9085 24.6533 38.9325 23.768C39.9672 22.872 40.6818 21.7893 41.0765 20.52H41.2845C40.8685 21.8853 40.1218 23.0267 39.0445 23.944C37.9672 24.8613 36.5432 25.32 34.7725 25.32ZM45.8563 25.32C45.5043 25.32 45.1843 25.2347 44.8963 25.064C44.6083 24.8933 44.3736 24.664 44.1923 24.376C44.0216 24.0773 43.9363 23.752 43.9363 23.4C43.9363 23.048 44.0216 22.728 44.1923 22.44C44.3736 22.1413 44.6083 21.9067 44.8963 21.736C45.1843 21.5547 45.5043 21.464 45.8563 21.464C46.2083 21.464 46.5283 21.5547 46.8163 21.736C47.1149 21.9067 47.3496 22.1413 47.5203 22.44C47.6909 22.728 47.7763 23.048 47.7763 23.4C47.7763 23.752 47.6909 24.0773 47.5203 24.376C47.3496 24.664 47.1149 24.8933 46.8163 25.064C46.5283 25.2347 46.2083 25.32 45.8563 25.32Z" fill="#A5886E"/>
</svg>
