<svg width="32" height="32" viewBox="0 0 32 32" fill="none" xmlns="http://www.w3.org/2000/svg">
<mask id="mask0_107_6" style="mask-type:alpha" maskUnits="userSpaceOnUse" x="0" y="0" width="32" height="32">
<rect width="32" height="32" rx="5.25" fill="#C4C4C4"/>
</mask>
<g mask="url(#mask0_107_6)">
<rect width="32" height="32" fill="#D1CAC5"/>
<path d="M5.42644 17.9279V17.7126H10.3853V17.9279H5.42644ZM9.87737 8.83662L14.3713 21.7762H15.6541V22H9.33499V21.7762H10.7125L7.57872 12.1081L4.17811 21.7762H6.09795V22H2.30993V21.7762H3.91984L8.49129 8.83662H9.87737ZM20.7519 22.1722C20.0058 22.1722 19.3343 22.0086 18.7374 21.6815C18.1462 21.3486 17.6756 20.8751 17.3255 20.261C16.9754 19.6411 16.8003 18.9007 16.8003 18.0398C16.8003 17.1789 16.9668 16.4414 17.2997 15.8272C17.6383 15.2074 18.0974 14.7339 18.6771 14.4067C19.2568 14.0796 19.9197 13.916 20.6658 13.916C21.5038 13.916 22.1753 14.0825 22.6804 14.4153C23.1912 14.7482 23.5585 15.1873 23.7823 15.7325C24.0119 16.2778 24.1267 16.8632 24.1267 17.4888H17.9626V17.265H22.3016C22.3073 16.9608 22.2901 16.6279 22.2499 16.2663C22.2155 15.9047 22.1437 15.5632 22.0347 15.2418C21.9256 14.9147 21.7621 14.6478 21.544 14.4412C21.3259 14.2346 21.0332 14.1312 20.6658 14.1312C20.2469 14.1312 19.9025 14.2403 19.6327 14.4584C19.363 14.6765 19.1506 14.9721 18.9957 15.3451C18.8464 15.7182 18.7403 16.1372 18.6771 16.6021C18.614 17.067 18.5824 17.5462 18.5824 18.0398C18.5824 18.5334 18.614 19.0126 18.6771 19.4775C18.746 19.9367 18.8637 20.3499 19.0301 20.7172C19.1965 21.0846 19.4261 21.3773 19.7188 21.5954C20.0173 21.8135 20.3932 21.9225 20.8466 21.9225C21.6674 21.9225 22.336 21.7073 22.8526 21.2768C23.3748 20.8406 23.745 20.304 23.9631 19.6669H24.2128C23.989 20.3844 23.5901 20.9813 23.0161 21.4576C22.4479 21.934 21.6932 22.1722 20.7519 22.1722ZM26.7076 22.1722C26.5182 22.1722 26.346 22.1263 26.191 22.0344C26.0361 21.9426 25.9098 21.8192 25.8122 21.6642C25.7204 21.5035 25.6745 21.3285 25.6745 21.1391C25.6745 20.9497 25.7204 20.7775 25.8122 20.6225C25.9098 20.4618 26.0361 20.3356 26.191 20.2437C26.346 20.1462 26.5182 20.0974 26.7076 20.0974C26.897 20.0974 27.0692 20.1462 27.2241 20.2437C27.3848 20.3356 27.5111 20.4618 27.6029 20.6225C27.6948 20.7775 27.7407 20.9497 27.7407 21.1391C27.7407 21.3285 27.6948 21.5035 27.6029 21.6642C27.5111 21.8192 27.3848 21.9426 27.2241 22.0344C27.0692 22.1263 26.897 22.1722 26.7076 22.1722Z" fill="#A5886E"/>
</g>
</svg>
