<svg width="208" height="370" viewBox="0 0 208 370" fill="none" xmlns="http://www.w3.org/2000/svg">
<path d="M4.785 218V217.42H30.885V1.07999H4.785V0.499983H101.935V1.07999H75.98V217.42H105.56C116.29 217.42 125.57 215.825 133.4 212.635C141.23 209.348 147.755 204.805 152.975 199.005C158.292 193.108 162.448 186.245 165.445 178.415C168.538 170.488 170.617 161.933 171.68 152.75H172.26V218H4.785Z" fill="#A5886E"/>
<path d="M29.2139 333.203V346H27.5439V333.203H29.2139ZM33.3271 333.203V334.592H23.4395V333.203H33.3271ZM44.124 338.705V340.085H37.1982V338.705H44.124ZM37.4619 333.203V346H35.7656V333.203H37.4619ZM45.6005 333.203V346H43.913V333.203H45.6005ZM57.2851 344.62V346H50.5087V344.62H57.2851ZM50.8515 333.203V346H49.1552V333.203H50.8515ZM56.3886 338.705V340.085H50.5087V338.705H56.3886ZM57.1972 333.203V334.592H50.5087V333.203H57.1972ZM69.6502 340.981H66.2313V339.602H69.6502C70.3123 339.602 70.8485 339.496 71.2586 339.285C71.6688 339.074 71.9676 338.781 72.1551 338.406C72.3485 338.031 72.4452 337.604 72.4452 337.123C72.4452 336.684 72.3485 336.271 72.1551 335.884C71.9676 335.497 71.6688 335.187 71.2586 334.952C70.8485 334.712 70.3123 334.592 69.6502 334.592H66.6268V346H64.9305V333.203H69.6502C70.617 333.203 71.4344 333.37 72.1024 333.704C72.7704 334.038 73.2772 334.501 73.6229 335.093C73.9686 335.679 74.1414 336.35 74.1414 337.105C74.1414 337.926 73.9686 338.626 73.6229 339.206C73.2772 339.786 72.7704 340.229 72.1024 340.533C71.4344 340.832 70.617 340.981 69.6502 340.981ZM84.9559 344.62V346H78.1795V344.62H84.9559ZM78.5223 333.203V346H76.826V333.203H78.5223ZM84.0594 338.705V340.085H78.1795V338.705H84.0594ZM84.868 333.203V334.592H78.1795V333.203H84.868ZM87.5964 333.203H91.8328C92.7937 333.203 93.6052 333.35 94.2673 333.643C94.9353 333.936 95.4422 334.369 95.7879 334.943C96.1394 335.512 96.3152 336.212 96.3152 337.044C96.3152 337.63 96.1951 338.166 95.9548 338.652C95.7205 339.133 95.3806 339.543 94.9353 339.883C94.4959 340.217 93.9685 340.466 93.3533 340.63L92.8787 340.814H88.8972L88.8797 339.435H91.8855C92.4949 339.435 93.0017 339.329 93.406 339.118C93.8103 338.901 94.115 338.611 94.3201 338.248C94.5252 337.885 94.6277 337.483 94.6277 337.044C94.6277 336.552 94.531 336.121 94.3377 335.752C94.1443 335.383 93.8396 335.099 93.4236 334.899C93.0134 334.694 92.4832 334.592 91.8328 334.592H89.2927V346H87.5964V333.203ZM95.0759 346L91.9646 340.199L93.7312 340.19L96.8865 345.895V346H95.0759ZM100.925 333.203V346H99.2282V333.203H100.925ZM108.65 333.203L103.333 339.171L100.344 342.273L100.063 340.463L102.313 337.984L106.611 333.203H108.65ZM107.015 346L102.278 339.76L103.289 338.415L109.037 346H107.015ZM117.891 342.766C117.891 342.467 117.844 342.203 117.751 341.975C117.663 341.74 117.505 341.529 117.276 341.342C117.053 341.154 116.743 340.976 116.344 340.806C115.952 340.636 115.454 340.463 114.85 340.287C114.217 340.1 113.646 339.892 113.136 339.663C112.627 339.429 112.19 339.162 111.827 338.863C111.464 338.564 111.185 338.222 110.992 337.835C110.799 337.448 110.702 337.006 110.702 336.508C110.702 336.01 110.804 335.55 111.009 335.128C111.215 334.706 111.507 334.34 111.888 334.029C112.275 333.713 112.735 333.467 113.268 333.291C113.801 333.115 114.396 333.027 115.052 333.027C116.013 333.027 116.828 333.212 117.496 333.581C118.17 333.944 118.682 334.422 119.034 335.014C119.385 335.6 119.561 336.227 119.561 336.895H117.874C117.874 336.414 117.771 335.989 117.566 335.62C117.361 335.245 117.05 334.952 116.634 334.741C116.218 334.524 115.691 334.416 115.052 334.416C114.449 334.416 113.951 334.507 113.558 334.688C113.166 334.87 112.873 335.116 112.679 335.427C112.492 335.737 112.398 336.092 112.398 336.49C112.398 336.76 112.454 337.006 112.565 337.229C112.682 337.445 112.861 337.647 113.101 337.835C113.347 338.022 113.658 338.195 114.033 338.354C114.414 338.512 114.868 338.664 115.395 338.811C116.122 339.016 116.749 339.244 117.276 339.496C117.803 339.748 118.237 340.032 118.577 340.349C118.923 340.659 119.177 341.014 119.341 341.412C119.511 341.805 119.596 342.25 119.596 342.748C119.596 343.27 119.491 343.741 119.28 344.163C119.069 344.585 118.767 344.945 118.375 345.244C117.982 345.543 117.51 345.774 116.96 345.938C116.415 346.097 115.805 346.176 115.132 346.176C114.54 346.176 113.957 346.094 113.382 345.93C112.814 345.766 112.296 345.52 111.827 345.191C111.364 344.863 110.992 344.459 110.711 343.979C110.435 343.492 110.298 342.93 110.298 342.291H111.985C111.985 342.73 112.07 343.108 112.24 343.425C112.41 343.735 112.641 343.993 112.934 344.198C113.233 344.403 113.57 344.556 113.945 344.655C114.326 344.749 114.721 344.796 115.132 344.796C115.723 344.796 116.224 344.714 116.634 344.55C117.045 344.386 117.355 344.151 117.566 343.847C117.783 343.542 117.891 343.182 117.891 342.766ZM137.156 339.197V340.006C137.156 340.967 137.036 341.828 136.796 342.59C136.555 343.352 136.21 343.999 135.758 344.532C135.307 345.065 134.765 345.473 134.132 345.754C133.505 346.035 132.802 346.176 132.023 346.176C131.267 346.176 130.573 346.035 129.94 345.754C129.313 345.473 128.768 345.065 128.305 344.532C127.848 343.999 127.494 343.352 127.242 342.59C126.99 341.828 126.864 340.967 126.864 340.006V339.197C126.864 338.236 126.987 337.378 127.233 336.622C127.485 335.86 127.839 335.213 128.296 334.68C128.754 334.141 129.296 333.73 129.922 333.449C130.555 333.168 131.25 333.027 132.005 333.027C132.785 333.027 133.488 333.168 134.115 333.449C134.748 333.73 135.29 334.141 135.741 334.68C136.198 335.213 136.546 335.86 136.787 336.622C137.033 337.378 137.156 338.236 137.156 339.197ZM135.477 340.006V339.18C135.477 338.418 135.398 337.744 135.24 337.158C135.088 336.572 134.862 336.08 134.563 335.682C134.264 335.283 133.898 334.981 133.464 334.776C133.037 334.571 132.55 334.469 132.005 334.469C131.478 334.469 131.001 334.571 130.573 334.776C130.151 334.981 129.788 335.283 129.483 335.682C129.184 336.08 128.953 336.572 128.789 337.158C128.625 337.744 128.543 338.418 128.543 339.18V340.006C128.543 340.773 128.625 341.453 128.789 342.045C128.953 342.631 129.187 343.126 129.492 343.53C129.802 343.929 130.169 344.23 130.59 344.436C131.018 344.641 131.496 344.743 132.023 344.743C132.574 344.743 133.063 344.641 133.491 344.436C133.919 344.23 134.279 343.929 134.572 343.53C134.871 343.126 135.096 342.631 135.249 342.045C135.401 341.453 135.477 340.773 135.477 340.006ZM141.932 333.203V346H140.236V333.203H141.932ZM147.294 338.96V340.349H141.563V338.96H147.294ZM148.164 333.203V334.592H141.563V333.203H148.164ZM160.291 340.015H157.048L157.031 338.652H159.975C160.461 338.652 160.886 338.57 161.249 338.406C161.613 338.242 161.894 338.008 162.093 337.703C162.298 337.393 162.401 337.023 162.401 336.596C162.401 336.127 162.31 335.746 162.128 335.453C161.953 335.154 161.68 334.938 161.311 334.803C160.948 334.662 160.485 334.592 159.922 334.592H157.426V346H155.73V333.203H159.922C160.579 333.203 161.165 333.271 161.68 333.405C162.196 333.534 162.632 333.739 162.99 334.021C163.353 334.296 163.628 334.647 163.816 335.075C164.003 335.503 164.097 336.016 164.097 336.613C164.097 337.141 163.962 337.618 163.693 338.046C163.423 338.468 163.048 338.813 162.568 339.083C162.093 339.353 161.537 339.525 160.898 339.602L160.291 340.015ZM160.212 346H156.38L157.338 344.62H160.212C160.751 344.62 161.208 344.526 161.583 344.339C161.964 344.151 162.254 343.888 162.454 343.548C162.653 343.202 162.752 342.795 162.752 342.326C162.752 341.852 162.667 341.441 162.498 341.096C162.328 340.75 162.061 340.483 161.698 340.296C161.334 340.108 160.866 340.015 160.291 340.015H157.874L157.892 338.652H161.197L161.557 339.145C162.172 339.197 162.694 339.373 163.122 339.672C163.549 339.965 163.874 340.34 164.097 340.797C164.326 341.254 164.44 341.758 164.44 342.309C164.44 343.105 164.264 343.779 163.913 344.33C163.567 344.875 163.078 345.291 162.445 345.578C161.812 345.859 161.068 346 160.212 346ZM175.615 344.62V346H168.838V344.62H175.615ZM169.181 333.203V346H167.485V333.203H169.181ZM174.718 338.705V340.085H168.838V338.705H174.718ZM175.527 333.203V334.592H168.838V333.203H175.527ZM180.075 333.203V346H178.378V333.203H180.075ZM193.543 333.203V346H191.838L185.396 336.13V346H183.7V333.203H185.396L191.865 343.1V333.203H193.543ZM206.546 339.628V344.312C206.388 344.547 206.136 344.811 205.79 345.104C205.445 345.391 204.967 345.643 204.358 345.859C203.754 346.07 202.975 346.176 202.02 346.176C201.241 346.176 200.523 346.041 199.867 345.771C199.216 345.496 198.651 345.098 198.17 344.576C197.696 344.049 197.326 343.41 197.063 342.66C196.805 341.904 196.676 341.049 196.676 340.094V339.101C196.676 338.146 196.787 337.293 197.01 336.543C197.239 335.793 197.573 335.157 198.012 334.636C198.451 334.108 198.991 333.71 199.629 333.44C200.268 333.165 201 333.027 201.826 333.027C202.805 333.027 203.622 333.197 204.279 333.537C204.941 333.871 205.456 334.334 205.826 334.926C206.201 335.518 206.441 336.191 206.546 336.947H204.85C204.774 336.484 204.621 336.062 204.393 335.682C204.17 335.301 203.851 334.996 203.435 334.768C203.019 334.533 202.483 334.416 201.826 334.416C201.235 334.416 200.722 334.524 200.288 334.741C199.855 334.958 199.497 335.269 199.216 335.673C198.935 336.077 198.724 336.566 198.583 337.141C198.449 337.715 198.381 338.362 198.381 339.083V340.094C198.381 340.832 198.466 341.491 198.636 342.071C198.812 342.651 199.061 343.146 199.383 343.557C199.705 343.961 200.089 344.269 200.535 344.479C200.986 344.69 201.484 344.796 202.029 344.796C202.632 344.796 203.121 344.746 203.496 344.646C203.871 344.541 204.164 344.418 204.375 344.277C204.586 344.131 204.747 343.993 204.859 343.864V340.999H201.897V339.628H206.546ZM29.2227 354.337L24.9863 366H23.2549L28.1328 353.203H29.249L29.2227 354.337ZM32.7734 366L28.5283 354.337L28.502 353.203H29.6182L34.5137 366H32.7734ZM32.5537 361.263V362.651H25.3643V361.263H32.5537ZM45.1386 362.133L47.6786 353.203H48.9091L48.1972 356.675L45.4638 366H44.2421L45.1386 362.133ZM42.5107 353.203L44.5321 361.957L45.1386 366H43.9257L40.8232 353.203H42.5107ZM52.1962 361.948L54.1737 353.203H55.87L52.7763 366H51.5634L52.1962 361.948ZM49.0937 353.203L51.5634 362.133L52.4599 366H51.2382L48.6015 356.675L47.8808 353.203H49.0937ZM62.6415 354.337L58.4052 366H56.6737L61.5516 353.203H62.6679L62.6415 354.337ZM66.1923 366L61.9471 354.337L61.9208 353.203H63.037L67.9325 366H66.1923ZM65.9725 361.263V362.651H58.7831V361.263H65.9725ZM77.9471 364.62V366H71.5487V364.62H77.9471ZM71.8827 353.203V366H70.1864V353.203H71.8827ZM88.1902 364.62V366H81.7918V364.62H88.1902ZM82.1258 353.203V366H80.4295V353.203H82.1258ZM92.3689 353.203V366H90.6726V353.203H92.3689ZM97.7302 358.96V360.349H91.9998V358.96H97.7302ZM98.6003 353.203V354.592H91.9998V353.203H98.6003ZM108.923 364.62V366H102.524V364.62H108.923ZM102.858 353.203V366H101.162V353.203H102.858ZM120.677 359.197V360.006C120.677 360.967 120.557 361.828 120.317 362.59C120.077 363.352 119.731 363.999 119.28 364.532C118.829 365.065 118.287 365.473 117.654 365.754C117.027 366.035 116.324 366.176 115.545 366.176C114.789 366.176 114.094 366.035 113.462 365.754C112.835 365.473 112.29 365.065 111.827 364.532C111.37 363.999 111.015 363.352 110.763 362.59C110.511 361.828 110.385 360.967 110.385 360.006V359.197C110.385 358.236 110.508 357.378 110.755 356.622C111.007 355.86 111.361 355.213 111.818 354.68C112.275 354.141 112.817 353.73 113.444 353.449C114.077 353.168 114.771 353.027 115.527 353.027C116.306 353.027 117.009 353.168 117.636 353.449C118.269 353.73 118.811 354.141 119.262 354.68C119.719 355.213 120.068 355.86 120.308 356.622C120.554 357.378 120.677 358.236 120.677 359.197ZM118.999 360.006V359.18C118.999 358.418 118.92 357.744 118.761 357.158C118.609 356.572 118.383 356.08 118.085 355.682C117.786 355.283 117.42 354.981 116.986 354.776C116.558 354.571 116.072 354.469 115.527 354.469C115 354.469 114.522 354.571 114.094 354.776C113.673 354.981 113.309 355.283 113.005 355.682C112.706 356.08 112.474 356.572 112.31 357.158C112.146 357.744 112.064 358.418 112.064 359.18V360.006C112.064 360.773 112.146 361.453 112.31 362.045C112.474 362.631 112.709 363.126 113.013 363.53C113.324 363.929 113.69 364.23 114.112 364.436C114.54 364.641 115.017 364.743 115.545 364.743C116.095 364.743 116.585 364.641 117.012 364.436C117.44 364.23 117.8 363.929 118.093 363.53C118.392 363.126 118.618 362.631 118.77 362.045C118.923 361.453 118.999 360.773 118.999 360.006ZM127.124 362.133L129.664 353.203H130.894L130.182 356.675L127.449 366H126.227L127.124 362.133ZM124.496 353.203L126.517 361.957L127.124 366H125.911L122.808 353.203H124.496ZM134.181 361.948L136.159 353.203H137.855L134.761 366H133.548L134.181 361.948ZM131.079 353.203L133.548 362.133L134.445 366H133.223L130.587 356.675L129.866 353.203H131.079ZM148.406 364.62V366H141.629V364.62H148.406ZM141.972 353.203V366H140.276V353.203H141.972ZM147.509 358.705V360.085H141.629V358.705H147.509ZM148.318 353.203V354.592H141.629V353.203H148.318ZM151.046 353.203H155.283C156.244 353.203 157.055 353.35 157.717 353.643C158.385 353.936 158.892 354.369 159.238 354.943C159.589 355.512 159.765 356.212 159.765 357.044C159.765 357.63 159.645 358.166 159.405 358.652C159.17 359.133 158.831 359.543 158.385 359.883C157.946 360.217 157.419 360.466 156.803 360.63L156.329 360.814H152.347L152.33 359.435H155.336C155.945 359.435 156.452 359.329 156.856 359.118C157.26 358.901 157.565 358.611 157.77 358.248C157.975 357.885 158.078 357.483 158.078 357.044C158.078 356.552 157.981 356.121 157.788 355.752C157.594 355.383 157.29 355.099 156.874 354.899C156.463 354.694 155.933 354.592 155.283 354.592H152.743V366H151.046V353.203ZM158.526 366L155.415 360.199L157.181 360.19L160.336 365.895V366H158.526Z" fill="#A5886E"/>
</svg>
