<svg width="210" height="224" viewBox="0 0 210 224" fill="none" xmlns="http://www.w3.org/2000/svg">
<path d="M110.49 223.9C95.12 223.9 81.2967 221.097 69.02 215.49C56.84 209.883 46.4967 202.005 37.99 191.855C29.4833 181.705 22.9583 169.863 18.415 156.33C13.9683 142.797 11.745 128.103 11.745 112.25C11.745 96.3967 14.1133 81.7033 18.85 68.17C23.5867 54.6367 30.305 42.795 39.005 32.645C47.8017 22.495 58.2417 14.6167 70.325 9.01C82.4083 3.40332 95.7967 0.599985 110.49 0.599985C125.28 0.599985 138.668 3.40332 150.655 9.01C162.738 14.6167 173.13 22.495 181.83 32.645C190.627 42.795 197.345 54.6367 201.985 68.17C206.722 81.7033 209.09 96.3967 209.09 112.25C209.09 128.103 206.867 142.797 202.42 156.33C197.973 169.863 191.497 181.705 182.99 191.855C174.483 202.005 164.14 209.883 151.96 215.49C139.78 221.097 125.957 223.9 110.49 223.9ZM110.49 223.32C120.64 223.32 128.808 220.42 134.995 214.62C141.278 208.723 146.112 200.652 149.495 190.405C152.878 180.062 155.15 168.22 156.31 154.88C157.567 141.443 158.195 127.233 158.195 112.25C158.195 97.17 157.422 82.96 155.875 69.62C154.425 56.28 151.912 44.4867 148.335 34.24C144.758 23.8967 139.877 15.825 133.69 10.025C127.6 4.12833 119.867 1.18 110.49 1.18C101.21 1.18 93.4283 4.12833 87.145 10.025C80.9583 15.825 76.0767 23.8967 72.5 34.24C68.9233 44.4867 66.3617 56.28 64.815 69.62C63.365 82.96 62.64 97.17 62.64 112.25C62.64 127.233 63.22 141.443 64.38 154.88C65.6367 168.22 67.9567 180.013 71.34 190.26C74.7233 200.507 79.5567 208.578 85.84 214.475C92.22 220.372 100.437 223.32 110.49 223.32Z" fill="white" fill-opacity="0.65"/>
<path d="M110.49 223.9C95.12 223.9 81.2967 221.097 69.02 215.49C56.84 209.883 46.4967 202.005 37.99 191.855C29.4833 181.705 22.9583 169.863 18.415 156.33C13.9683 142.797 11.745 128.103 11.745 112.25C11.745 96.3967 14.1133 81.7033 18.85 68.17C23.5867 54.6367 30.305 42.795 39.005 32.645C47.8017 22.495 58.2417 14.6167 70.325 9.01C82.4083 3.40332 95.7967 0.599985 110.49 0.599985C125.28 0.599985 138.668 3.40332 150.655 9.01C162.738 14.6167 173.13 22.495 181.83 32.645C190.627 42.795 197.345 54.6367 201.985 68.17C206.722 81.7033 209.09 96.3967 209.09 112.25C209.09 128.103 206.867 142.797 202.42 156.33C197.973 169.863 191.497 181.705 182.99 191.855C174.483 202.005 164.14 209.883 151.96 215.49C139.78 221.097 125.957 223.9 110.49 223.9ZM110.49 223.32C120.64 223.32 128.808 220.42 134.995 214.62C141.278 208.723 146.112 200.652 149.495 190.405C152.878 180.062 155.15 168.22 156.31 154.88C157.567 141.443 158.195 127.233 158.195 112.25C158.195 97.17 157.422 82.96 155.875 69.62C154.425 56.28 151.912 44.4867 148.335 34.24C144.758 23.8967 139.877 15.825 133.69 10.025C127.6 4.12833 119.867 1.18 110.49 1.18C101.21 1.18 93.4283 4.12833 87.145 10.025C80.9583 15.825 76.0767 23.8967 72.5 34.24C68.9233 44.4867 66.3617 56.28 64.815 69.62C63.365 82.96 62.64 97.17 62.64 112.25C62.64 127.233 63.22 141.443 64.38 154.88C65.6367 168.22 67.9567 180.013 71.34 190.26C74.7233 200.507 79.5567 208.578 85.84 214.475C92.22 220.372 100.437 223.32 110.49 223.32Z" fill="#CCC5BE"/>
<g filter="url(#filter0_d_303_5)">
<path d="M83.671 108.532L86.923 111.107L85.7804 112.162L82.5812 109.622L83.671 108.532ZM86.879 103.197V104.006C86.879 104.967 86.7589 105.828 86.5187 106.59C86.2784 107.352 85.9327 107.999 85.4816 108.532C85.0304 109.065 84.4884 109.473 83.8556 109.754C83.2286 110.035 82.5255 110.176 81.7462 110.176C80.9904 110.176 80.296 110.035 79.6632 109.754C79.0363 109.473 78.4913 109.065 78.0284 108.532C77.5714 107.999 77.2169 107.352 76.965 106.59C76.713 105.828 76.587 104.967 76.587 104.006V103.197C76.587 102.236 76.7101 101.378 76.9562 100.622C77.2081 99.8604 77.5626 99.2129 78.0196 98.6797C78.4767 98.1406 79.0187 97.7305 79.6456 97.4492C80.2784 97.168 80.9728 97.0273 81.7286 97.0273C82.5079 97.0273 83.214 97.168 83.8468 97.4492C84.4796 97.7305 85.0216 98.1406 85.4728 98.6797C85.9239 99.2129 86.2696 99.8604 86.5099 100.622C86.756 101.378 86.879 102.236 86.879 103.197ZM85.2003 104.006V103.18C85.2003 102.418 85.1212 101.744 84.963 101.158C84.8107 100.572 84.5851 100.08 84.2863 99.6816C83.9874 99.2832 83.6241 98.9814 83.1964 98.7764C82.7687 98.5713 82.2794 98.4688 81.7286 98.4688C81.2071 98.4688 80.7325 98.5713 80.3048 98.7764C79.8829 98.9814 79.5196 99.2832 79.215 99.6816C78.9103 100.08 78.6759 100.572 78.5118 101.158C78.3478 101.744 78.2657 102.418 78.2657 103.18V104.006C78.2657 104.773 78.3478 105.453 78.5118 106.045C78.6759 106.631 78.9103 107.126 79.215 107.53C79.5255 107.929 79.8946 108.23 80.3224 108.436C80.7501 108.641 81.2247 108.743 81.7462 108.743C82.297 108.743 82.7863 108.641 83.214 108.436C83.6417 108.23 84.0021 107.929 84.295 107.53C84.5939 107.126 84.8195 106.631 84.9718 106.045C85.1241 105.453 85.2003 104.773 85.2003 104.006ZM97.3595 97.2031H99.047V105.86C99.047 106.821 98.8331 107.621 98.4054 108.26C97.9776 108.898 97.4093 109.379 96.7003 109.701C95.9972 110.018 95.2325 110.176 94.4063 110.176C93.5391 110.176 92.754 110.018 92.0509 109.701C91.3536 109.379 90.7999 108.898 90.3897 108.26C89.9854 107.621 89.7833 106.821 89.7833 105.86V97.2031H91.462V105.86C91.462 106.528 91.585 107.079 91.8311 107.513C92.0772 107.946 92.42 108.269 92.8595 108.479C93.3048 108.69 93.8204 108.796 94.4063 108.796C94.9981 108.796 95.5138 108.69 95.9532 108.479C96.3985 108.269 96.7442 107.946 96.9903 107.513C97.2364 107.079 97.3595 106.528 97.3595 105.86V97.2031ZM104.069 97.2031V110H102.373V97.2031H104.069ZM115.824 108.62V110H109.048V108.62H115.824ZM109.391 97.2031V110H107.694V97.2031H109.391ZM114.928 102.705V104.085H109.048V102.705H114.928ZM115.736 97.2031V98.5918H109.048V97.2031H115.736ZM123.369 97.2031V110H121.699V97.2031H123.369ZM127.482 97.2031V98.5918H117.595V97.2031H127.482ZM137.682 108.62V110H131.283V108.62H137.682ZM131.617 97.2031V110H129.921V97.2031H131.617ZM138.643 97.2031L141.966 103.628L145.297 97.2031H147.222L142.809 105.219V110H141.113V105.219L136.701 97.2031H138.643ZM79.1446 126.766C79.1446 126.467 79.0978 126.203 79.004 125.975C78.9161 125.74 78.7579 125.529 78.5294 125.342C78.3068 125.154 77.9962 124.976 77.5978 124.806C77.2052 124.636 76.7071 124.463 76.1036 124.287C75.4708 124.1 74.8995 123.892 74.3898 123.663C73.88 123.429 73.4435 123.162 73.0802 122.863C72.7169 122.564 72.4386 122.222 72.2452 121.835C72.0519 121.448 71.9552 121.006 71.9552 120.508C71.9552 120.01 72.0577 119.55 72.2628 119.128C72.4679 118.706 72.7609 118.34 73.1417 118.029C73.5284 117.713 73.9884 117.467 74.5216 117.291C75.0548 117.115 75.6495 117.027 76.3058 117.027C77.2667 117.027 78.0812 117.212 78.7491 117.581C79.423 117.944 79.9357 118.422 80.2872 119.014C80.6388 119.6 80.8146 120.227 80.8146 120.895H79.1271C79.1271 120.414 79.0245 119.989 78.8195 119.62C78.6144 119.245 78.3038 118.952 77.8878 118.741C77.4718 118.524 76.9445 118.416 76.3058 118.416C75.7023 118.416 75.2042 118.507 74.8116 118.688C74.4191 118.87 74.1261 119.116 73.9327 119.427C73.7452 119.737 73.6515 120.092 73.6515 120.49C73.6515 120.76 73.7071 121.006 73.8185 121.229C73.9357 121.445 74.1144 121.647 74.3546 121.835C74.6007 122.022 74.9113 122.195 75.2863 122.354C75.6671 122.512 76.1212 122.664 76.6486 122.811C77.3751 123.016 78.0021 123.244 78.5294 123.496C79.0568 123.748 79.4904 124.032 79.8302 124.349C80.1759 124.659 80.4308 125.014 80.5948 125.412C80.7648 125.805 80.8497 126.25 80.8497 126.748C80.8497 127.27 80.7443 127.741 80.5333 128.163C80.3224 128.585 80.0206 128.945 79.628 129.244C79.2355 129.543 78.7638 129.774 78.213 129.938C77.6681 130.097 77.0587 130.176 76.3849 130.176C75.7931 130.176 75.2101 130.094 74.6359 129.93C74.0675 129.766 73.5489 129.52 73.0802 129.191C72.6173 128.863 72.2452 128.459 71.964 127.979C71.6886 127.492 71.5509 126.93 71.5509 126.291H73.2384C73.2384 126.73 73.3234 127.108 73.4933 127.425C73.6632 127.735 73.8946 127.993 74.1876 128.198C74.4864 128.403 74.8234 128.556 75.1984 128.655C75.5792 128.749 75.9747 128.796 76.3849 128.796C76.9767 128.796 77.4777 128.714 77.8878 128.55C78.298 128.386 78.6085 128.151 78.8195 127.847C79.0363 127.542 79.1446 127.182 79.1446 126.766ZM90.8731 117.203H92.5606V125.86C92.5606 126.821 92.3468 127.621 91.919 128.26C91.4913 128.898 90.9229 129.379 90.2139 129.701C89.5108 130.018 88.7462 130.176 87.92 130.176C87.0528 130.176 86.2677 130.018 85.5645 129.701C84.8673 129.379 84.3136 128.898 83.9034 128.26C83.4991 127.621 83.297 126.821 83.297 125.86V117.203H84.9757V125.86C84.9757 126.528 85.0987 127.079 85.3448 127.513C85.5909 127.946 85.9337 128.269 86.3731 128.479C86.8184 128.69 87.3341 128.796 87.92 128.796C88.5118 128.796 89.0274 128.69 89.4669 128.479C89.9122 128.269 90.2579 127.946 90.504 127.513C90.7501 127.079 90.8731 126.528 90.8731 125.86V117.203ZM103.489 125.931H105.177C105.089 126.739 104.857 127.463 104.482 128.102C104.107 128.74 103.577 129.247 102.892 129.622C102.206 129.991 101.351 130.176 100.325 130.176C99.5752 130.176 98.8926 130.035 98.2774 129.754C97.668 129.473 97.1436 129.074 96.7041 128.559C96.2647 128.037 95.9248 127.413 95.6846 126.687C95.4502 125.954 95.333 125.14 95.333 124.243V122.969C95.333 122.072 95.4502 121.261 95.6846 120.534C95.9248 119.802 96.2676 119.175 96.7129 118.653C97.1641 118.132 97.7061 117.73 98.3389 117.449C98.9717 117.168 99.6836 117.027 100.475 117.027C101.441 117.027 102.259 117.209 102.927 117.572C103.595 117.936 104.113 118.439 104.482 119.084C104.857 119.723 105.089 120.464 105.177 121.308H103.489C103.407 120.71 103.255 120.197 103.032 119.77C102.81 119.336 102.493 119.002 102.083 118.768C101.673 118.533 101.137 118.416 100.475 118.416C99.9063 118.416 99.4053 118.524 98.9717 118.741C98.544 118.958 98.1836 119.266 97.8907 119.664C97.6036 120.062 97.3868 120.54 97.2403 121.097C97.0938 121.653 97.0205 122.271 97.0205 122.951V124.243C97.0205 124.87 97.085 125.459 97.2139 126.01C97.3487 126.561 97.5508 127.044 97.8204 127.46C98.0899 127.876 98.4327 128.204 98.8487 128.444C99.2647 128.679 99.7569 128.796 100.325 128.796C101.046 128.796 101.62 128.682 102.048 128.453C102.476 128.225 102.798 127.896 103.015 127.469C103.237 127.041 103.396 126.528 103.489 125.931ZM115.754 125.931H117.441C117.354 126.739 117.122 127.463 116.747 128.102C116.372 128.74 115.842 129.247 115.156 129.622C114.471 129.991 113.615 130.176 112.59 130.176C111.84 130.176 111.157 130.035 110.542 129.754C109.933 129.473 109.408 129.074 108.969 128.559C108.529 128.037 108.189 127.413 107.949 126.687C107.715 125.954 107.598 125.14 107.598 124.243V122.969C107.598 122.072 107.715 121.261 107.949 120.534C108.189 119.802 108.532 119.175 108.978 118.653C109.429 118.132 109.971 117.73 110.604 117.449C111.236 117.168 111.948 117.027 112.739 117.027C113.706 117.027 114.523 117.209 115.191 117.572C115.859 117.936 116.378 118.439 116.747 119.084C117.122 119.723 117.354 120.464 117.441 121.308H115.754C115.672 120.71 115.52 120.197 115.297 119.77C115.074 119.336 114.758 119.002 114.348 118.768C113.938 118.533 113.401 118.416 112.739 118.416C112.171 118.416 111.67 118.524 111.236 118.741C110.809 118.958 110.448 119.266 110.155 119.664C109.868 120.062 109.651 120.54 109.505 121.097C109.358 121.653 109.285 122.271 109.285 122.951V124.243C109.285 124.87 109.35 125.459 109.479 126.01C109.613 126.561 109.815 127.044 110.085 127.46C110.354 127.876 110.697 128.204 111.113 128.444C111.529 128.679 112.021 128.796 112.59 128.796C113.311 128.796 113.885 128.682 114.312 128.453C114.74 128.225 115.062 127.896 115.279 127.469C115.502 127.041 115.66 126.528 115.754 125.931ZM128.423 128.62V130H121.646V128.62H128.423ZM121.989 117.203V130H120.293V117.203H121.989ZM127.526 122.705V124.085H121.646V122.705H127.526ZM128.335 117.203V118.592H121.646V117.203H128.335ZM139.193 128.62V130H132.417V128.62H139.193ZM132.76 117.203V130H131.063V117.203H132.76ZM138.297 122.705V124.085H132.417V122.705H138.297ZM139.105 117.203V118.592H132.417V117.203H139.105ZM145.297 130H142.625L142.642 128.62H145.297C146.211 128.62 146.973 128.43 147.582 128.049C148.191 127.662 148.648 127.123 148.953 126.432C149.264 125.734 149.419 124.92 149.419 123.988V123.206C149.419 122.474 149.331 121.823 149.155 121.255C148.979 120.681 148.722 120.197 148.382 119.805C148.042 119.406 147.626 119.104 147.134 118.899C146.647 118.694 146.088 118.592 145.455 118.592H142.572V117.203H145.455C146.293 117.203 147.057 117.344 147.749 117.625C148.44 117.9 149.035 118.302 149.533 118.829C150.037 119.351 150.424 119.983 150.693 120.728C150.963 121.466 151.098 122.298 151.098 123.224V123.988C151.098 124.914 150.963 125.749 150.693 126.493C150.424 127.231 150.034 127.861 149.524 128.383C149.02 128.904 148.411 129.306 147.696 129.587C146.987 129.862 146.187 130 145.297 130ZM143.53 117.203V130H141.834V117.203H143.53Z" fill="#CCC5BE"/>
</g>
<defs>
<filter id="filter0_d_303_5" x="61.5509" y="91.0273" width="99.5466" height="53.1484" filterUnits="userSpaceOnUse" color-interpolation-filters="sRGB">
<feFlood flood-opacity="0" result="BackgroundImageFix"/>
<feColorMatrix in="SourceAlpha" type="matrix" values="0 0 0 0 0 0 0 0 0 0 0 0 0 0 0 0 0 0 127 0" result="hardAlpha"/>
<feOffset dy="4"/>
<feGaussianBlur stdDeviation="5"/>
<feComposite in2="hardAlpha" operator="out"/>
<feColorMatrix type="matrix" values="0 0 0 0 0 0 0 0 0 0 0 0 0 0 0 0 0 0 0.4 0"/>
<feBlend mode="normal" in2="BackgroundImageFix" result="effect1_dropShadow_303_5"/>
<feBlend mode="normal" in="SourceGraphic" in2="effect1_dropShadow_303_5" result="shape"/>
</filter>
</defs>
</svg>
