<svg width="184" height="34" viewBox="0 0 184 34" fill="none" xmlns="http://www.w3.org/2000/svg">
<path d="M6.21387 0.203125V13H4.54395V0.203125H6.21387ZM10.3271 0.203125V1.5918H0.439453V0.203125H10.3271ZM21.124 5.70508V7.08496H14.1982V5.70508H21.124ZM14.4619 0.203125V13H12.7656V0.203125H14.4619ZM22.6005 0.203125V13H20.913V0.203125H22.6005ZM34.2851 11.6201V13H27.5087V11.6201H34.2851ZM27.8515 0.203125V13H26.1552V0.203125H27.8515ZM33.3886 5.70508V7.08496H27.5087V5.70508H33.3886ZM34.1972 0.203125V1.5918H27.5087V0.203125H34.1972ZM46.6502 7.98145H43.2313V6.60156H46.6502C47.3123 6.60156 47.8485 6.49609 48.2586 6.28516C48.6688 6.07422 48.9676 5.78125 49.1551 5.40625C49.3485 5.03125 49.4452 4.60352 49.4452 4.12305C49.4452 3.68359 49.3485 3.27051 49.1551 2.88379C48.9676 2.49707 48.6688 2.18652 48.2586 1.95215C47.8485 1.71191 47.3123 1.5918 46.6502 1.5918H43.6268V13H41.9305V0.203125H46.6502C47.617 0.203125 48.4344 0.370117 49.1024 0.704102C49.7704 1.03809 50.2772 1.50098 50.6229 2.09277C50.9686 2.67871 51.1414 3.34961 51.1414 4.10547C51.1414 4.92578 50.9686 5.62598 50.6229 6.20605C50.2772 6.78613 49.7704 7.22852 49.1024 7.5332C48.4344 7.83203 47.617 7.98145 46.6502 7.98145ZM61.9559 11.6201V13H55.1795V11.6201H61.9559ZM55.5223 0.203125V13H53.826V0.203125H55.5223ZM61.0594 5.70508V7.08496H55.1795V5.70508H61.0594ZM61.868 0.203125V1.5918H55.1795V0.203125H61.868ZM64.5964 0.203125H68.8328C69.7937 0.203125 70.6052 0.349609 71.2673 0.642578C71.9353 0.935547 72.4422 1.36914 72.7879 1.94336C73.1394 2.51172 73.3152 3.21191 73.3152 4.04395C73.3152 4.62988 73.1951 5.16602 72.9548 5.65234C72.7205 6.13281 72.3806 6.54297 71.9353 6.88281C71.4959 7.2168 70.9685 7.46582 70.3533 7.62988L69.8787 7.81445H65.8972L65.8797 6.43457H68.8855C69.4949 6.43457 70.0017 6.3291 70.406 6.11816C70.8103 5.90137 71.115 5.61133 71.3201 5.24805C71.5252 4.88477 71.6277 4.4834 71.6277 4.04395C71.6277 3.55176 71.531 3.12109 71.3377 2.75195C71.1443 2.38281 70.8396 2.09863 70.4236 1.89941C70.0134 1.69434 69.4832 1.5918 68.8328 1.5918H66.2927V13H64.5964V0.203125ZM72.0759 13L68.9646 7.19922L70.7312 7.19043L73.8865 12.8945V13H72.0759ZM77.9245 0.203125V13H76.2282V0.203125H77.9245ZM85.6501 0.203125L80.3327 6.1709L77.3445 9.27344L77.0632 7.46289L79.3132 4.98438L83.6111 0.203125H85.6501ZM84.0154 13L79.278 6.75977L80.2888 5.41504L86.0368 13H84.0154ZM94.8913 9.76562C94.8913 9.4668 94.8444 9.20312 94.7507 8.97461C94.6628 8.74023 94.5046 8.5293 94.2761 8.3418C94.0534 8.1543 93.7429 7.97559 93.3444 7.80566C92.9518 7.63574 92.4538 7.46289 91.8503 7.28711C91.2175 7.09961 90.6462 6.8916 90.1364 6.66309C89.6266 6.42871 89.1901 6.16211 88.8268 5.86328C88.4636 5.56445 88.1852 5.22168 87.9919 4.83496C87.7985 4.44824 87.7018 4.00586 87.7018 3.50781C87.7018 3.00977 87.8044 2.5498 88.0095 2.12793C88.2145 1.70605 88.5075 1.33984 88.8884 1.0293C89.2751 0.712891 89.735 0.466797 90.2682 0.291016C90.8014 0.115234 91.3962 0.0273438 92.0524 0.0273438C93.0134 0.0273438 93.8278 0.211914 94.4958 0.581055C95.1696 0.944336 95.6823 1.42188 96.0339 2.01367C96.3854 2.59961 96.5612 3.22656 96.5612 3.89453H94.8737C94.8737 3.41406 94.7712 2.98926 94.5661 2.62012C94.361 2.24512 94.0505 1.95215 93.6345 1.74121C93.2184 1.52441 92.6911 1.41602 92.0524 1.41602C91.4489 1.41602 90.9509 1.50684 90.5583 1.68848C90.1657 1.87012 89.8727 2.11621 89.6794 2.42676C89.4919 2.7373 89.3981 3.0918 89.3981 3.49023C89.3981 3.75977 89.4538 4.00586 89.5651 4.22852C89.6823 4.44531 89.861 4.64746 90.1012 4.83496C90.3473 5.02246 90.6579 5.19531 91.0329 5.35352C91.4137 5.51172 91.8679 5.66406 92.3952 5.81055C93.1218 6.01562 93.7487 6.24414 94.2761 6.49609C94.8034 6.74805 95.237 7.03223 95.5768 7.34863C95.9225 7.65918 96.1774 8.01367 96.3415 8.41211C96.5114 8.80469 96.5964 9.25 96.5964 9.74805C96.5964 10.2695 96.4909 10.7412 96.28 11.1631C96.069 11.585 95.7673 11.9453 95.3747 12.2441C94.9821 12.543 94.5104 12.7744 93.9596 12.9385C93.4147 13.0967 92.8054 13.1758 92.1315 13.1758C91.5397 13.1758 90.9567 13.0938 90.3825 12.9297C89.8141 12.7656 89.2956 12.5195 88.8268 12.1914C88.3639 11.8633 87.9919 11.459 87.7106 10.9785C87.4352 10.4922 87.2975 9.92969 87.2975 9.29102H88.985C88.985 9.73047 89.07 10.1084 89.2399 10.4248C89.4098 10.7354 89.6413 10.9932 89.9343 11.1982C90.2331 11.4033 90.57 11.5557 90.945 11.6553C91.3259 11.749 91.7214 11.7959 92.1315 11.7959C92.7233 11.7959 93.2243 11.7139 93.6345 11.5498C94.0446 11.3857 94.3552 11.1514 94.5661 10.8467C94.7829 10.542 94.8913 10.1816 94.8913 9.76562ZM114.156 6.19727V7.00586C114.156 7.9668 114.036 8.82812 113.796 9.58984C113.555 10.3516 113.21 10.999 112.758 11.5322C112.307 12.0654 111.765 12.4727 111.132 12.7539C110.505 13.0352 109.802 13.1758 109.023 13.1758C108.267 13.1758 107.573 13.0352 106.94 12.7539C106.313 12.4727 105.768 12.0654 105.305 11.5322C104.848 10.999 104.494 10.3516 104.242 9.58984C103.99 8.82812 103.864 7.9668 103.864 7.00586V6.19727C103.864 5.23633 103.987 4.37793 104.233 3.62207C104.485 2.86035 104.839 2.21289 105.296 1.67969C105.754 1.14063 106.296 0.730469 106.922 0.449219C107.555 0.167969 108.25 0.0273438 109.005 0.0273438C109.785 0.0273438 110.488 0.167969 111.115 0.449219C111.748 0.730469 112.29 1.14063 112.741 1.67969C113.198 2.21289 113.546 2.86035 113.787 3.62207C114.033 4.37793 114.156 5.23633 114.156 6.19727ZM112.477 7.00586V6.17969C112.477 5.41797 112.398 4.74414 112.24 4.1582C112.088 3.57227 111.862 3.08008 111.563 2.68164C111.264 2.2832 110.898 1.98145 110.464 1.77637C110.037 1.57129 109.55 1.46875 109.005 1.46875C108.478 1.46875 108.001 1.57129 107.573 1.77637C107.151 1.98145 106.788 2.2832 106.483 2.68164C106.184 3.08008 105.953 3.57227 105.789 4.1582C105.625 4.74414 105.543 5.41797 105.543 6.17969V7.00586C105.543 7.77344 105.625 8.45312 105.789 9.04492C105.953 9.63086 106.187 10.126 106.492 10.5303C106.802 10.9287 107.169 11.2305 107.59 11.4355C108.018 11.6406 108.496 11.7432 109.023 11.7432C109.574 11.7432 110.063 11.6406 110.491 11.4355C110.919 11.2305 111.279 10.9287 111.572 10.5303C111.871 10.126 112.096 9.63086 112.249 9.04492C112.401 8.45312 112.477 7.77344 112.477 7.00586ZM118.932 0.203125V13H117.236V0.203125H118.932ZM124.294 5.95996V7.34863H118.563V5.95996H124.294ZM125.164 0.203125V1.5918H118.563V0.203125H125.164ZM137.291 7.01465H134.048L134.031 5.65234H136.975C137.461 5.65234 137.886 5.57031 138.249 5.40625C138.613 5.24219 138.894 5.00781 139.093 4.70312C139.298 4.39258 139.401 4.02344 139.401 3.5957C139.401 3.12695 139.31 2.74609 139.128 2.45312C138.953 2.1543 138.68 1.9375 138.311 1.80273C137.948 1.66211 137.485 1.5918 136.922 1.5918H134.426V13H132.73V0.203125H136.922C137.579 0.203125 138.165 0.270508 138.68 0.405273C139.196 0.53418 139.632 0.739258 139.99 1.02051C140.353 1.2959 140.628 1.64746 140.816 2.0752C141.003 2.50293 141.097 3.01562 141.097 3.61328C141.097 4.14062 140.962 4.61816 140.693 5.0459C140.423 5.46777 140.048 5.81348 139.568 6.08301C139.093 6.35254 138.537 6.52539 137.898 6.60156L137.291 7.01465ZM137.212 13H133.38L134.338 11.6201H137.212C137.751 11.6201 138.208 11.5264 138.583 11.3389C138.964 11.1514 139.254 10.8877 139.454 10.5479C139.653 10.2021 139.752 9.79492 139.752 9.32617C139.752 8.85156 139.667 8.44141 139.498 8.0957C139.328 7.75 139.061 7.4834 138.698 7.2959C138.334 7.1084 137.866 7.01465 137.291 7.01465H134.874L134.892 5.65234H138.197L138.557 6.14453C139.172 6.19727 139.694 6.37305 140.122 6.67188C140.549 6.96484 140.874 7.33984 141.097 7.79688C141.326 8.25391 141.44 8.75781 141.44 9.30859C141.44 10.1055 141.264 10.7793 140.913 11.3301C140.567 11.875 140.078 12.291 139.445 12.5781C138.812 12.8594 138.068 13 137.212 13ZM152.615 11.6201V13H145.838V11.6201H152.615ZM146.181 0.203125V13H144.485V0.203125H146.181ZM151.718 5.70508V7.08496H145.838V5.70508H151.718ZM152.527 0.203125V1.5918H145.838V0.203125H152.527ZM157.075 0.203125V13H155.378V0.203125H157.075ZM170.543 0.203125V13H168.838L162.396 3.12988V13H160.7V0.203125H162.396L168.865 10.0996V0.203125H170.543ZM183.546 6.62793V11.3125C183.388 11.5469 183.136 11.8105 182.79 12.1035C182.445 12.3906 181.967 12.6426 181.358 12.8594C180.754 13.0703 179.975 13.1758 179.02 13.1758C178.241 13.1758 177.523 13.041 176.867 12.7715C176.216 12.4961 175.651 12.0977 175.17 11.5762C174.696 11.0488 174.326 10.4102 174.063 9.66016C173.805 8.9043 173.676 8.04883 173.676 7.09375V6.10059C173.676 5.14551 173.787 4.29297 174.01 3.54297C174.239 2.79297 174.573 2.15723 175.012 1.63574C175.451 1.1084 175.991 0.709961 176.629 0.44043C177.268 0.165039 178 0.0273438 178.826 0.0273438C179.805 0.0273438 180.622 0.197266 181.279 0.537109C181.941 0.871094 182.456 1.33398 182.826 1.92578C183.201 2.51758 183.441 3.19141 183.546 3.94727H181.85C181.774 3.48437 181.621 3.0625 181.393 2.68164C181.17 2.30078 180.851 1.99609 180.435 1.76758C180.019 1.5332 179.483 1.41602 178.826 1.41602C178.235 1.41602 177.722 1.52441 177.288 1.74121C176.855 1.95801 176.497 2.26855 176.216 2.67285C175.935 3.07715 175.724 3.56641 175.583 4.14062C175.449 4.71484 175.381 5.3623 175.381 6.08301V7.09375C175.381 7.83203 175.466 8.49121 175.636 9.07129C175.812 9.65137 176.061 10.1465 176.383 10.5566C176.705 10.9609 177.089 11.2686 177.535 11.4795C177.986 11.6904 178.484 11.7959 179.029 11.7959C179.632 11.7959 180.121 11.7461 180.496 11.6465C180.871 11.541 181.164 11.418 181.375 11.2773C181.586 11.1309 181.747 10.9932 181.859 10.8643V7.99902H178.897V6.62793H183.546ZM6.22266 21.3369L1.98633 33H0.254883L5.13281 20.2031H6.24902L6.22266 21.3369ZM9.77344 33L5.52832 21.3369L5.50195 20.2031H6.61816L11.5137 33H9.77344ZM9.55371 28.2627V29.6514H2.36426V28.2627H9.55371ZM22.1386 29.1328L24.6786 20.2031H25.9091L25.1972 23.6748L22.4638 33H21.2421L22.1386 29.1328ZM19.5107 20.2031L21.5321 28.957L22.1386 33H20.9257L17.8232 20.2031H19.5107ZM29.1962 28.9482L31.1737 20.2031H32.87L29.7763 33H28.5634L29.1962 28.9482ZM26.0937 20.2031L28.5634 29.1328L29.4599 33H28.2382L25.6015 23.6748L24.8808 20.2031H26.0937ZM39.6415 21.3369L35.4052 33H33.6737L38.5516 20.2031H39.6679L39.6415 21.3369ZM43.1923 33L38.9471 21.3369L38.9208 20.2031H40.037L44.9325 33H43.1923ZM42.9725 28.2627V29.6514H35.7831V28.2627H42.9725ZM54.9471 31.6201V33H48.5487V31.6201H54.9471ZM48.8827 20.2031V33H47.1864V20.2031H48.8827ZM65.1902 31.6201V33H58.7918V31.6201H65.1902ZM59.1258 20.2031V33H57.4295V20.2031H59.1258ZM69.3689 20.2031V33H67.6726V20.2031H69.3689ZM74.7302 25.96V27.3486H68.9998V25.96H74.7302ZM75.6003 20.2031V21.5918H68.9998V20.2031H75.6003ZM85.9226 31.6201V33H79.5241V31.6201H85.9226ZM79.8581 20.2031V33H78.1618V20.2031H79.8581ZM97.6774 26.1973V27.0059C97.6774 27.9668 97.5573 28.8281 97.3171 29.5898C97.0768 30.3516 96.7311 30.999 96.28 31.5322C95.8288 32.0654 95.2868 32.4727 94.654 32.7539C94.027 33.0352 93.3239 33.1758 92.5446 33.1758C91.7887 33.1758 91.0944 33.0352 90.4616 32.7539C89.8346 32.4727 89.2897 32.0654 88.8268 31.5322C88.3698 30.999 88.0153 30.3516 87.7634 29.5898C87.5114 28.8281 87.3854 27.9668 87.3854 27.0059V26.1973C87.3854 25.2363 87.5085 24.3779 87.7546 23.6221C88.0065 22.8604 88.361 22.2129 88.818 21.6797C89.2751 21.1406 89.8171 20.7305 90.444 20.4492C91.0768 20.168 91.7712 20.0273 92.527 20.0273C93.3063 20.0273 94.0095 20.168 94.6364 20.4492C95.2692 20.7305 95.8112 21.1406 96.2624 21.6797C96.7194 22.2129 97.068 22.8604 97.3083 23.6221C97.5544 24.3779 97.6774 25.2363 97.6774 26.1973ZM95.9987 27.0059V26.1797C95.9987 25.418 95.9196 24.7441 95.7614 24.1582C95.6091 23.5723 95.3835 23.0801 95.0846 22.6816C94.7858 22.2832 94.4196 21.9814 93.986 21.7764C93.5583 21.5713 93.072 21.4688 92.527 21.4688C91.9997 21.4688 91.5221 21.5713 91.0944 21.7764C90.6725 21.9814 90.3093 22.2832 90.0046 22.6816C89.7057 23.0801 89.4743 23.5723 89.3102 24.1582C89.1462 24.7441 89.0641 25.418 89.0641 26.1797V27.0059C89.0641 27.7734 89.1462 28.4531 89.3102 29.0449C89.4743 29.6309 89.7087 30.126 90.0134 30.5303C90.3239 30.9287 90.6901 31.2305 91.112 31.4355C91.5397 31.6406 92.0173 31.7432 92.5446 31.7432C93.0954 31.7432 93.5846 31.6406 94.0124 31.4355C94.4401 31.2305 94.8005 30.9287 95.0934 30.5303C95.3923 30.126 95.6179 29.6309 95.7702 29.0449C95.9225 28.4531 95.9987 27.7734 95.9987 27.0059ZM104.124 29.1328L106.664 20.2031H107.894L107.182 23.6748L104.449 33H103.227L104.124 29.1328ZM101.496 20.2031L103.517 28.957L104.124 33H102.911L99.8082 20.2031H101.496ZM111.181 28.9482L113.159 20.2031H114.855L111.761 33H110.548L111.181 28.9482ZM108.079 20.2031L110.548 29.1328L111.445 33H110.223L107.587 23.6748L106.866 20.2031H108.079ZM125.406 31.6201V33H118.629V31.6201H125.406ZM118.972 20.2031V33H117.276V20.2031H118.972ZM124.509 25.7051V27.085H118.629V25.7051H124.509ZM125.318 20.2031V21.5918H118.629V20.2031H125.318ZM128.046 20.2031H132.283C133.244 20.2031 134.055 20.3496 134.717 20.6426C135.385 20.9355 135.892 21.3691 136.238 21.9434C136.589 22.5117 136.765 23.2119 136.765 24.0439C136.765 24.6299 136.645 25.166 136.405 25.6523C136.17 26.1328 135.831 26.543 135.385 26.8828C134.946 27.2168 134.419 27.4658 133.803 27.6299L133.329 27.8145H129.347L129.33 26.4346H132.336C132.945 26.4346 133.452 26.3291 133.856 26.1182C134.26 25.9014 134.565 25.6113 134.77 25.248C134.975 24.8848 135.078 24.4834 135.078 24.0439C135.078 23.5518 134.981 23.1211 134.788 22.752C134.594 22.3828 134.29 22.0986 133.874 21.8994C133.463 21.6943 132.933 21.5918 132.283 21.5918H129.743V33H128.046V20.2031ZM135.526 33L132.415 27.1992L134.181 27.1904L137.336 32.8945V33H135.526Z" fill="#A5886E"/>
</svg>
