<svg width="256" height="256" viewBox="0 0 256 256" fill="none" xmlns="http://www.w3.org/2000/svg">
<mask id="mask0_107_1" style="mask-type:alpha" maskUnits="userSpaceOnUse" x="0" y="0" width="256" height="256">
<rect width="256" height="256" rx="42" fill="#C4C4C4"/>
</mask>
<g mask="url(#mask0_107_1)">
<rect width="256" height="256" fill="#A5886E" fill-opacity="0.25"/>
<path d="M61.5817 142.217V141.981H93.3786V142.217H61.5817ZM91.6647 80.5739L122.93 170.764H131.263V171H88.3549V170.764H97.8113L75.7071 102.383L51.5935 170.764H65.8962V171H39.8913V170.764H51.298L83.0949 80.5739H91.6647ZM166.274 172.182C161.112 172.182 156.443 171.059 152.266 168.813C148.129 166.528 144.839 163.277 142.396 159.061C139.953 154.806 138.732 149.723 138.732 143.813C138.732 137.903 139.914 132.84 142.278 128.624C144.682 124.368 147.932 121.118 152.03 118.872C156.128 116.587 160.757 115.444 165.919 115.444C171.79 115.444 176.518 116.626 180.103 118.99C183.689 121.315 186.289 124.368 187.905 128.151C189.56 131.934 190.387 135.972 190.387 140.267H146.652V140.031H177.858C177.897 137.706 177.779 135.164 177.503 132.406C177.227 129.609 176.676 126.949 175.848 124.428C175.06 121.867 173.858 119.778 172.243 118.163C170.667 116.508 168.559 115.68 165.919 115.68C163.003 115.68 160.58 116.508 158.649 118.163C156.758 119.778 155.261 121.965 154.158 124.723C153.054 127.442 152.266 130.456 151.794 133.766C151.36 137.075 151.143 140.425 151.143 143.813C151.143 147.162 151.36 150.511 151.794 153.86C152.266 157.17 153.074 160.184 154.217 162.903C155.399 165.582 157.014 167.749 159.063 169.404C161.151 171.02 163.811 171.827 167.042 171.827C173.189 171.827 178.232 170.094 182.172 166.626C186.112 163.159 188.811 158.983 190.269 154.097H190.505C188.969 159.219 186.191 163.514 182.172 166.981C178.153 170.448 172.854 172.182 166.274 172.182ZM207.272 172.182C205.972 172.182 204.79 171.867 203.726 171.236C202.662 170.606 201.795 169.759 201.125 168.695C200.495 167.592 200.18 166.39 200.18 165.09C200.18 163.79 200.495 162.608 201.125 161.544C201.795 160.44 202.662 159.574 203.726 158.943C204.79 158.273 205.972 157.938 207.272 157.938C208.572 157.938 209.754 158.273 210.818 158.943C211.921 159.574 212.788 160.44 213.419 161.544C214.049 162.608 214.364 163.79 214.364 165.09C214.364 166.39 214.049 167.592 213.419 168.695C212.788 169.759 211.921 170.606 210.818 171.236C209.754 171.867 208.572 172.182 207.272 172.182Z" fill="#A5886E"/>
</g>
</svg>
